<?xml version="1.0" standalone="no"?><!DOCTYPE svg PUBLIC "-//W3C//DTD SVG 1.1//EN" "http://www.w3.org/Graphics/SVG/1.1/DTD/svg11.dtd"><svg t="1738421240995" class="icon" viewBox="0 0 1024 1024" version="1.1" xmlns="http://www.w3.org/2000/svg" p-id="36737" xmlns:xlink="http://www.w3.org/1999/xlink" width="48" height="48"><path d="M512 146.77347C269.76016 146.77347 73.386735 343.146895 73.386735 585.386735s196.373425 438.613265 438.613265 438.613265 438.613265-196.373425 438.613265-438.613265S754.23984 146.77347 512 146.77347z m0 791.070353C317.349699 937.843823 159.542912 780.037036 159.542912 585.386735S317.349699 232.929647 512 232.929647 864.457088 390.736434 864.457088 585.386735 706.650301 937.843823 512 937.843823zM925.925604 302.606497a187.977114 187.977114 0 0 0-312.010679-208.121994 501.616927 501.616927 0 0 1 312.042009 208.121994zM410.116404 94.484503a187.977114 187.977114 0 1 0-312.042008 208.121994 501.522939 501.522939 0 0 1 312.042008-208.121994z" p-id="36738" fill="#0061b2"></path><path d="M512 585.386735v-250.636151h-62.659038v313.295189h250.636152v-62.659038z" p-id="36739" fill="#0061b2"></path></svg>