<?xml version="1.0" standalone="no"?><!DOCTYPE svg PUBLIC "-//W3C//DTD SVG 1.1//EN" "http://www.w3.org/Graphics/SVG/1.1/DTD/svg11.dtd"><svg t="1738400864105" class="icon" viewBox="0 0 1024 1024" version="1.1" xmlns="http://www.w3.org/2000/svg" p-id="3244" width="24" height="24" xmlns:xlink="http://www.w3.org/1999/xlink"><path d="M871.45 553.05c-3.53-5.91-9.15-10.11-15.83-11.79-6.68-1.69-13.6-0.69-19.54 2.85l-105.37 62.81-162.31-93.69 162.35-93.74 103.88 59.99c3.92 2.25 8.35 3.44 12.87 3.45 9.19 0 17.77-4.95 22.35-12.9 3.45-5.97 4.36-12.92 2.58-19.57-1.79-6.65-6.05-12.22-12.02-15.66l-78.08-45.08 66.67-38.5c5.97-3.45 10.24-9.01 12.02-15.66 1.78-6.65 0.87-13.6-2.58-19.56-3.45-5.97-9.01-10.24-15.66-12.02-6.65-1.77-13.6-0.85-19.57 2.58l-67.13 38.76-1.32-93.84c-0.09-6.89-2.87-13.33-7.81-18.14-4.95-4.8-11.27-7.34-18.34-7.29-6.89 0.09-13.33 2.87-18.14 7.8-4.8 4.94-7.39 11.45-7.29 18.35l1.71 122.68-164.22 94.8V277.11l103.87-59.97c5.97-3.45 10.24-9.01 12.02-15.66 1.78-6.65 0.87-13.6-2.58-19.57-3.45-5.97-9.01-10.24-15.66-12.02-6.67-1.81-13.61-0.88-19.57 2.58l-78.08 45.07v-93.5c0-14.23-11.57-25.8-25.79-25.8-14.23 0-25.8 11.57-25.8 25.8v94.04l-81.93-45.79c-12.42-6.94-28.15-2.48-35.1 9.93-3.36 6.01-4.18 12.98-2.31 19.61 1.87 6.63 6.23 12.13 12.24 15.49l107.1 59.85v190.28L321.71 370.8V250.86c0-14.23-11.57-25.8-25.79-25.8-14.22 0-25.79 11.57-25.79 25.8v90.15l-86.59-49.99c-5.97-3.46-12.9-4.37-19.58-2.58-6.65 1.78-12.21 6.05-15.66 12.02-3.45 5.97-4.36 12.92-2.58 19.57 1.79 6.65 6.05 12.22 12.02 15.66l87.05 50.27-80.61 48.06c-12.22 7.29-16.24 23.16-8.95 35.37 4.63 7.78 13.13 12.59 22.18 12.59 4.63 0 9.19-1.26 13.19-3.64l105.38-62.83 169.25 97.71-169.3 97.72-103.88-59.97c-5.97-3.44-12.91-4.38-19.57-2.58-6.65 1.78-12.22 6.05-15.66 12.02-3.45 5.97-4.36 12.93-2.58 19.56 1.78 6.65 6.05 12.22 12.02 15.67l78.08 45.08L175 680.77c-12.32 7.12-16.55 22.94-9.43 35.24 4.59 7.95 13.16 12.9 22.35 12.9 4.51 0 8.97-1.2 12.87-3.45l69.78-40.29 1.32 93.84c0.2 14.02 11.77 25.43 26.15 25.43 6.89-0.1 13.33-2.87 18.14-7.82 4.8-4.93 7.39-11.45 7.29-18.35l-1.71-122.67L489.1 559v190.42l-103.87 59.97c-5.97 3.45-10.24 9.02-12.02 15.67-1.79 6.65-0.87 13.6 2.58 19.56 4.6 7.96 13.17 12.91 22.36 12.91 4.5 0 8.95-1.2 12.87-3.47l78.08-45.09v93.53c0 14.22 11.57 25.79 25.8 25.79 14.22 0 25.79-11.57 25.79-25.79v-94.04l81.93 45.78c3.84 2.16 8.19 3.29 12.57 3.29 9.34 0 17.99-5.06 22.54-13.22 3.36-6.02 4.18-12.98 2.31-19.61-1.88-6.63-6.23-12.13-12.24-15.49l-107.1-59.86V556.79l164.26 94.83v119.94c0 14.23 11.57 25.81 25.79 25.81 14.23 0 25.8-11.57 25.8-25.81V681.4l70.85 40.92c11.98 6.91 28.41 2.42 35.24-9.44 7.12-12.31 2.87-28.13-9.44-35.24l-71.31-41.17 80.61-48.06c12.21-7.28 16.23-23.14 8.95-35.36z" fill="#007EFF" p-id="3245"></path></svg>