<?xml version="1.0" standalone="no"?><!DOCTYPE svg PUBLIC "-//W3C//DTD SVG 1.1//EN" "http://www.w3.org/Graphics/SVG/1.1/DTD/svg11.dtd"><svg t="1738421321647" class="icon" viewBox="0 0 1024 1024" version="1.1" xmlns="http://www.w3.org/2000/svg" p-id="39887" xmlns:xlink="http://www.w3.org/1999/xlink" width="48" height="48"><path d="M555.626667 522.24V0h-85.333334v522.24a165.546667 165.546667 0 0 0 0 320.853333V1024h85.333334V843.093333a165.546667 165.546667 0 0 0 0-320.853333zM512.96 768a81.066667 81.066667 0 1 1 85.333333-85.333333 80.213333 80.213333 0 0 1-85.333333 85.333333zM1024.96 426.666667a170.666667 170.666667 0 0 0-123.733333-160.426667V0h-85.333334v266.24a165.546667 165.546667 0 0 0 0 320.853333V1024h85.333334V587.093333A170.666667 170.666667 0 0 0 1024.96 426.666667z m-166.4 85.333333A85.333333 85.333333 0 1 1 939.626667 426.666667a85.333333 85.333333 0 0 1-81.066667 85.333333zM210.026667 266.24V0h-85.333334v266.24a165.546667 165.546667 0 0 0 0 320.853333V1024h85.333334V587.093333a165.546667 165.546667 0 0 0 0-320.853333zM171.626667 512a85.333333 85.333333 0 1 1 85.333333-85.333333 81.066667 81.066667 0 0 1-85.333333 85.333333z" fill="#0061b2" p-id="39888"></path></svg>