<?xml version="1.0" standalone="no"?><!DOCTYPE svg PUBLIC "-//W3C//DTD SVG 1.1//EN" "http://www.w3.org/Graphics/SVG/1.1/DTD/svg11.dtd"><svg t="1738415720896" class="icon" viewBox="0 0 1024 1024" version="1.1" xmlns="http://www.w3.org/2000/svg" p-id="5608" xmlns:xlink="http://www.w3.org/1999/xlink" width="48" height="48"><path d="M234.666 1002.684c0 11.75-9.562 21.312-21.344 21.312s-21.312-9.562-21.312-21.312c0-11.812 9.532-21.376 21.312-21.376s21.344 9.564 21.344 21.376zM831.99 1002.684c0 11.75-9.562 21.312-21.312 21.312-11.812 0-21.376-9.562-21.376-21.312a21.366 21.366 0 0 1 21.376-21.376c11.75 0 21.312 9.564 21.312 21.376z" fill="#434A54" p-id="5609"></path><path d="M874.678 981.308a21.366 21.366 0 0 1-21.376 21.376H170.666c-11.782 0-21.344-9.562-21.344-21.376V21.332c0-11.782 9.562-21.328 21.344-21.328h682.636c11.812 0 21.376 9.546 21.376 21.328v959.976z" fill="#7F4545" p-id="5610"></path><path d="M853.302 0.004h-42.624c11.75 0 21.312 9.546 21.312 21.328v959.976c0 11.812-9.562 21.376-21.312 21.376h42.624a21.366 21.366 0 0 0 21.376-21.376V21.332c0-11.782-9.562-21.328-21.376-21.328z" fill="#FFFFFF" opacity=".1" p-id="5611"></path><path d="M512.008 874.686c-129.406 0-234.686-105.31-234.686-234.686 0-129.406 105.28-234.672 234.686-234.672 129.36 0 234.67 105.266 234.67 234.672 0 129.376-105.31 234.686-234.67 234.686z" fill="#656D78" p-id="5612"></path><path d="M512.008 383.986c-141.406 0-255.998 114.624-255.998 256.014 0 141.376 114.592 255.998 255.998 255.998 141.36 0 255.982-114.624 255.982-255.998 0-141.39-114.622-256.014-255.982-256.014z m150.86 406.858c-40.312 40.28-93.876 62.466-150.86 62.466-57 0-110.562-22.188-150.844-62.466-40.31-40.282-62.498-93.844-62.498-150.844s22.188-110.562 62.498-150.86c40.282-40.296 93.844-62.484 150.844-62.484 56.984 0 110.546 22.188 150.86 62.484 40.248 40.296 62.436 93.86 62.436 150.86s-22.188 110.562-62.436 150.844z" fill="#434A54" p-id="5613"></path><path d="M512.008 725.312c-47.062 0-85.344-38.25-85.344-85.312s38.282-85.344 85.344-85.344c47.046 0 85.296 38.282 85.296 85.344s-38.25 85.312-85.296 85.312z" fill="#CCD1D9" p-id="5614"></path><path d="M512.008 533.328c-58.906 0-106.688 47.734-106.688 106.672 0 58.906 47.782 106.656 106.688 106.656 58.922 0 106.672-47.75 106.672-106.656 0-58.938-47.75-106.672-106.672-106.672z m0 170.672c-35.312 0-64-28.718-64-64 0-35.312 28.688-64 64-64 35.296 0 63.984 28.688 63.984 64 0 35.282-28.688 64-63.984 64z" fill="#AAB2BC" p-id="5615"></path><path d="M533.32 640c0 11.782-9.532 21.312-21.312 21.312S490.664 651.78 490.664 640s9.562-21.344 21.344-21.344S533.32 628.218 533.32 640z" fill="#434A54" p-id="5616"></path><path d="M512.008 298.674c-47.062 0-85.344-38.282-85.344-85.344 0-47.046 38.282-85.328 85.344-85.328 47.046 0 85.296 38.282 85.296 85.328 0 47.062-38.25 85.344-85.296 85.344z" fill="#FFCE54" p-id="5617"></path><path d="M533.32 277.33c0 11.782-9.532 21.344-21.312 21.344s-21.344-9.562-21.344-21.344 9.562-21.328 21.344-21.328 21.312 9.546 21.312 21.328zM533.32 149.33c0 11.782-9.532 21.344-21.312 21.344s-21.344-9.562-21.344-21.344 9.562-21.328 21.344-21.328 21.312 9.546 21.312 21.328zM578.118 226.862c10.188 5.89 13.688 18.938 7.812 29.14a21.388 21.388 0 0 1-29.188 7.812c-10.188-5.89-13.672-18.938-7.812-29.14a21.388 21.388 0 0 1 29.188-7.812zM467.258 162.862c10.188 5.89 13.688 18.938 7.782 29.14-5.876 10.204-18.938 13.704-29.124 7.812-10.218-5.89-13.718-18.938-7.812-29.14 5.872-10.204 18.936-13.704 29.154-7.812zM556.742 162.862a21.376 21.376 0 0 1 29.188 7.812c5.876 10.204 2.376 23.25-7.812 29.14a21.39 21.39 0 0 1-29.188-7.812c-5.86-10.204-2.376-23.25 7.812-29.14zM501.32 194.862c10.218-5.89 23.25-2.39 29.156 7.812 5.876 10.204 2.406 23.25-7.81 29.14-10.22 5.89-23.252 2.39-29.158-7.812-5.876-10.204-2.376-23.25 7.812-29.14zM445.914 226.862c10.188-5.89 23.25-2.406 29.124 7.812 5.906 10.204 2.406 23.25-7.782 29.14-10.218 5.89-23.282 2.39-29.156-7.812-5.904-10.204-2.404-23.25 7.814-29.14z" fill="#F6BB42" p-id="5618"></path><path d="M512.008 106.674c-58.906 0-106.688 47.75-106.688 106.656 0 58.922 47.782 106.672 106.688 106.672 58.922 0 106.672-47.75 106.672-106.672 0-58.906-47.75-106.656-106.672-106.656z m0 170.656c-35.312 0-64-28.704-64-64 0-35.282 28.688-64 64-64 35.296 0 63.984 28.718 63.984 64 0 35.296-28.688 64-63.984 64z" fill="#F6BB42" p-id="5619"></path></svg>