<?xml version="1.0" standalone="no"?><!DOCTYPE svg PUBLIC "-//W3C//DTD SVG 1.1//EN" "http://www.w3.org/Graphics/SVG/1.1/DTD/svg11.dtd"><svg t="1706605313911" class="icon" viewBox="0 0 1024 1024" version="1.1" xmlns="http://www.w3.org/2000/svg" p-id="2454" xmlns:xlink="http://www.w3.org/1999/xlink" width="200" height="200"><path d="M842.369507 80.528297h-82.127746v44.877008h82.127746c20.938792 0 37.973227 17.035651 37.973227 37.974443v696.943724c0 20.938792-17.034434 37.973227-37.973227 37.973227H180.595413c-20.938792 0-37.973227-17.034434-37.973227-37.973227V163.379748c0-20.938792 17.034434-37.974443 37.973227-37.974443h82.127746V80.528297H180.595413c-45.757617 0-82.850235 37.093834-82.850235 82.851451v696.943724c0 45.757617 37.093834 82.851451 82.850235 82.851451h661.772877c45.757617 0 82.850235-37.093834 82.850235-82.851451V163.379748c0.001216-45.757617-37.092618-82.851451-82.849018-82.851451z" fill="#f4ea2a" p-id="2455"></path><path d="M511.483068 206.126995l157.339548 157.339548-31.693414 31.693414-125.646134-125.647351-125.647351 125.647351-31.693413-31.693414zM261.240476 754.745252h500.485184v44.821057H261.240476z" fill="#f4ea2a" p-id="2456"></path><path d="M489.072539 231.0711h44.821058v453.356785h-44.821058z" fill="#f4ea2a" p-id="2457"></path></svg>