<?xml version="1.0" standalone="no"?><!DOCTYPE svg PUBLIC "-//W3C//DTD SVG 1.1//EN" "http://www.w3.org/Graphics/SVG/1.1/DTD/svg11.dtd"><svg t="1736436918512" class="icon" viewBox="0 0 1024 1024" version="1.1" xmlns="http://www.w3.org/2000/svg" p-id="3428" xmlns:xlink="http://www.w3.org/1999/xlink" width="200" height="200"><path d="M956.51 256c-9.31-16.29-30.255-23.273-48.874-13.964l-102.4 60.51v-102.4c0-11.637-9.309-20.946-20.945-20.946s-20.946 9.31-20.946 20.945v125.673L546.91 449.164V202.473l109.382-62.837c9.309-6.981 13.964-18.618 6.982-27.927-6.982-9.309-18.618-13.964-27.928-6.982l-88.436 51.2V34.91C546.91 16.291 530.62 0 512 0s-34.91 16.29-34.91 34.91V153.6l-88.435-51.2c-9.31-6.982-23.273-2.327-27.928 6.982-6.982 9.309-2.327 23.273 6.982 27.927l109.382 62.836v249.019L260.655 325.818V200.145c0-11.636-9.31-20.945-20.946-20.945s-20.945 9.31-20.945 20.945v102.4l-102.4-60.509C100.073 232.727 79.127 239.71 67.49 256c-9.31 16.29-4.655 39.564 13.964 48.873l102.4 58.182-88.437 51.2c-9.309 4.654-13.963 18.618-6.982 27.927 4.655 6.982 11.637 11.636 18.619 11.636 4.654 0 6.981 0 11.636-2.327l109.382-62.836L442.182 512 225.745 635.345 116.364 572.51c-9.31-6.982-23.273-2.327-27.928 6.982-6.981 9.309-2.327 23.273 6.982 27.927l88.437 51.2-102.4 58.182c-16.291 9.31-23.273 30.255-13.964 48.873 6.982 11.636 18.618 18.618 30.254 18.618 6.982 0 11.637-2.327 18.619-4.655l102.4-58.181v102.4c0 11.636 9.309 20.945 20.945 20.945s20.946-9.31 20.946-20.945V698.182L477.09 574.836v249.019l-109.382 60.509c-9.309 6.981-13.964 18.618-6.982 27.927 4.655 6.982 11.637 11.636 18.618 11.636 4.655 0 6.982 0 11.637-2.327l88.436-51.2v118.69c0 18.62 16.291 34.91 34.91 34.91s34.908-16.29 34.908-34.91V870.4l88.437 51.2c2.327 2.327 6.982 2.327 11.636 2.327 6.982 0 13.964-4.654 18.618-11.636 6.982-9.31 2.328-23.273-6.982-27.927l-109.381-62.837V572.51L768 695.855v125.672c0 11.637 9.31 20.946 20.945 20.946s20.946-9.31 20.946-20.946V721.455l102.4 58.181c4.654 2.328 11.636 4.655 18.618 4.655 11.636 0 23.273-6.982 30.255-18.618 9.309-16.291 4.654-39.564-13.964-48.873l-102.4-58.182 88.436-51.2c9.31-6.982 13.964-18.618 6.982-27.927-6.982-9.31-18.618-13.964-27.927-6.982l-109.382 62.836L581.82 512l216.436-123.345 109.381 62.836c2.328 2.327 6.982 2.327 11.637 2.327 6.982 0 13.963-4.654 18.618-11.636 6.982-9.31 2.327-23.273-6.982-27.927l-88.436-51.2 102.4-58.182c13.963-9.31 20.945-32.582 11.636-48.873m0 0z" fill="#FFFFFF" p-id="3429"></path></svg>