<?xml version="1.0" standalone="no"?><!DOCTYPE svg PUBLIC "-//W3C//DTD SVG 1.1//EN" "http://www.w3.org/Graphics/SVG/1.1/DTD/svg11.dtd"><svg t="1736436715495" class="icon" viewBox="0 0 1024 1024" version="1.1" xmlns="http://www.w3.org/2000/svg" p-id="2448" xmlns:xlink="http://www.w3.org/1999/xlink" width="200" height="200"><path d="M512 275.6608a236.29824 236.29824 0 1 0-0.08192 472.63744A236.29824 236.29824 0 0 0 512 275.6608z m0-118.1696c21.7088 0 39.36256-17.6128 39.36256-39.3216V39.40352a39.36256 39.36256 0 1 0-78.76608 0v78.76608c0 21.74976 17.6128 39.3216 39.40352 39.3216z m0 708.93568a39.40352 39.40352 0 0 0-39.40352 39.36256v78.76608a39.36256 39.36256 0 1 0 78.76608 0v-78.76608c0-21.7088-17.6128-39.36256-39.36256-39.36256z m472.51456-393.8304h-78.76608a39.36256 39.36256 0 1 0 0 78.76608h78.76608a39.36256 39.36256 0 1 0 0-78.76608z m-826.9824 39.40352a39.36256 39.36256 0 0 0-39.40352-39.40352H39.40352a39.40352 39.40352 0 0 0 0 78.76608h78.76608a39.3216 39.3216 0 0 0 39.3216-39.36256zM818.29888 261.3248l55.7056-55.7056a39.3216 39.3216 0 1 0-55.7056-55.7056l-55.74656 55.7056a39.48544 39.48544 0 0 0 0 55.7056 39.44448 39.44448 0 0 0 55.7056 0zM205.6192 762.59328l-55.7056 55.7056a39.40352 39.40352 0 0 0 55.7056 55.7056l55.7056-55.7056a39.40352 39.40352 0 0 0-55.7056-55.7056z m612.72064 0a39.5264 39.5264 0 0 0-55.74656 0 39.48544 39.48544 0 0 0 0 55.7056l55.7056 55.7056a39.3216 39.3216 0 0 0 55.7056 0 39.3216 39.3216 0 0 0 0-55.7056l-55.7056-55.7056zM205.6192 149.95456a39.40352 39.40352 0 0 0-55.7056 55.7056L205.6192 261.3248a39.36256 39.36256 0 1 0 55.7056-55.7056L205.6192 149.9136z" fill="#FFA127" p-id="2449"></path></svg>