<?xml version="1.0" standalone="no"?><!DOCTYPE svg PUBLIC "-//W3C//DTD SVG 1.1//EN" "http://www.w3.org/Graphics/SVG/1.1/DTD/svg11.dtd"><svg t="1738421279092" class="icon" viewBox="0 0 1130 1024" version="1.1" xmlns="http://www.w3.org/2000/svg" p-id="37990" xmlns:xlink="http://www.w3.org/1999/xlink" width="52.96875" height="48"><path d="M1029.013333 675.328H104.32c-52.757333 0-93.098667-40.341333-93.098667-93.098667v-477.866666C11.221333 51.605333 51.562667 11.264 104.32 11.264h927.786667c52.757333 0 93.098667 40.341333 93.098666 93.098667v477.866666c-3.093333 49.642667-43.434667 93.098667-96.192 93.098667zM104.32 73.322667c-18.624 0-31.04 12.416-31.04 31.04v477.866666c0 18.624 12.416 31.04 31.04 31.04h927.786667c18.624 0 31.04-12.416 31.04-31.04v-477.866666c0-18.624-12.416-31.04-31.018667-31.04H104.32z" fill="#0061b2" p-id="37991"></path><path d="M973.162667 194.346667h-238.933334c-18.624 0-31.04-12.416-31.04-31.018667 0-18.624 12.416-31.04 31.04-31.04h238.933334c18.624 0 31.04 12.416 31.04 31.04 0 18.602667-15.530667 31.018667-31.04 31.018667zM250.154667 1004.245333c-6.186667 0-12.416-3.114667-18.624-6.208-12.394667-9.301333-15.509333-31.04-6.186667-43.434666 15.509333-18.624 31.018667-43.456 24.810667-62.08 0-6.186667-6.186667-9.301333-9.301334-15.509334-9.322667-12.416-21.717333-27.925333-21.717333-52.757333 0-49.642667 34.133333-80.661333 43.434667-83.776 12.416-9.301333 34.133333-6.186667 43.434666 6.208 9.322667 12.416 6.208 34.133333-6.186666 43.434667 0 0-18.624 12.416-18.624 34.133333 0 3.114667 0 6.208 9.301333 12.416 6.208 9.322667 15.509333 21.717333 21.717333 37.248 9.322667 34.133333-3.093333 74.453333-34.133333 117.909333-9.301333 9.301333-18.624 12.416-27.925333 12.416z m285.482666 0c-6.208 0-12.416-3.114667-18.624-6.208-12.416-9.301333-15.509333-31.04-6.186666-43.434666 15.509333-18.624 31.018667-43.456 24.810666-62.08 0-6.186667-3.114667-9.301333-9.301333-15.509334-9.322667-12.416-21.738667-27.925333-21.738667-52.757333 0-49.642667 34.133333-80.661333 43.456-83.776 12.416-9.301333 34.133333-6.186667 43.434667 6.208 9.301333 12.416 6.208 34.133333-6.186667 43.434667 0 0-18.645333 12.416-18.645333 34.133333 0 3.114667 0 6.208 9.322667 12.416 6.186667 9.322667 15.509333 21.717333 21.717333 37.248 9.301333 34.133333-3.093333 74.453333-34.133333 117.909333-9.301333 9.301333-18.624 12.416-27.925334 12.416z m285.482667 0c-6.208 0-12.416-3.114667-18.624-6.208-12.416-9.301333-15.509333-31.04-6.186667-43.434666 15.488-18.624 31.018667-43.456 24.810667-62.08 0-6.186667-3.114667-9.301333-9.322667-15.509334-9.301333-12.416-21.717333-27.925333-21.717333-52.757333 0-49.642667 34.133333-80.661333 43.456-83.776 12.394667-9.301333 34.133333-6.186667 43.434667 6.208 9.301333 12.416 6.186667 34.133333-6.208 43.434667 0 0-18.624 12.416-18.624 34.133333 0 3.114667 0 6.208 9.322666 12.416 6.186667 9.322667 15.509333 21.717333 21.717334 37.248 9.301333 34.133333-3.114667 74.453333-34.133334 117.909333-9.322667 9.301333-18.624 12.416-27.946666 12.416zM42.24 371.221333h1020.906667v62.08H42.261333z" fill="#0061b2" p-id="37992"></path></svg>