<?xml version="1.0" standalone="no"?><!DOCTYPE svg PUBLIC "-//W3C//DTD SVG 1.1//EN" "http://www.w3.org/Graphics/SVG/1.1/DTD/svg11.dtd"><svg t="1702629290286" class="icon" viewBox="0 0 1024 1024" version="1.1" xmlns="http://www.w3.org/2000/svg" p-id="1479" xmlns:xlink="http://www.w3.org/1999/xlink" width="200" height="200"><path d="M559.5136 441.07776A61.44 61.44 0 0 0 614.4 379.98592v-85.4016c0-7.2704 2.8672-14.27456 8.04864-19.53792a29.77792 29.77792 0 0 1 41.2672-0.98304l223.82592 207.13472a41.69728 41.69728 0 0 1 0 61.60384l-223.8464 207.13472a29.63456 29.63456 0 0 1-20.11136 7.82336C627.46624 757.76 614.4 745.0624 614.4 729.3952v-85.4016a61.44 61.44 0 0 0-54.8864-61.07136l-186.81856-20.00896C347.09504 560.16896 327.68 538.19392 327.68 512c0-26.19392 19.43552-48.16896 45.01504-50.91328l186.81856-20.00896z m-189.6448-226.34496l-93.0816 23.26528A40.96 40.96 0 0 0 245.76 277.72928v468.52096a40.96 40.96 0 0 0 31.0272 39.7312l93.0816 23.28576A52.46976 52.46976 0 0 1 409.6 860.16a40.96 40.96 0 0 1-40.96 40.96h-143.36a102.4 102.4 0 0 1-102.4-102.4V225.28a102.4 102.4 0 0 1 102.4-102.4h143.36a40.96 40.96 0 0 1 40.96 40.96c0 24.064-16.384 45.056-39.7312 50.8928z" p-id="1480" fill="#8a8a8a"></path></svg>