<?xml version="1.0" standalone="no"?><!DOCTYPE svg PUBLIC "-//W3C//DTD SVG 1.1//EN" "http://www.w3.org/Graphics/SVG/1.1/DTD/svg11.dtd"><svg t="1738416116165" class="icon" viewBox="0 0 1024 1024" version="1.1" xmlns="http://www.w3.org/2000/svg" p-id="12901" xmlns:xlink="http://www.w3.org/1999/xlink" width="48" height="48"><path d="M522.666667 981.333333a21.333333 21.333333 0 0 1-15.104-36.394666l320-320c38.741333-38.741333 38.741333-101.76 0-140.501334s-101.76-38.741333-140.501334 0l-320 320a142.208 142.208 0 0 1-200.832 0 142.165333 142.165333 0 0 1 0-200.832l64-64a21.333333 21.333333 0 0 1 30.165334 30.165334l-64 64a99.413333 99.413333 0 0 0 0 140.501333c37.504 37.504 102.997333 37.504 140.501333 0l320-320a142.208 142.208 0 0 1 200.832 0 142.165333 142.165333 0 0 1 0 200.832l-320 320a21.248 21.248 0 0 1-15.061333 6.229333z" fill="" p-id="12902"></path><path d="M245.333333 576a21.333333 21.333333 0 0 1-15.104-36.394667l85.333334-85.333333a21.333333 21.333333 0 0 1 30.165333 30.165333l-85.333333 85.333334a21.248 21.248 0 0 1-15.061334 6.229333z" fill="" p-id="12903"></path><path d="M373.333333 515.626667c-17.066667 0-33.152-6.656-45.269333-18.730667l-24.96-25.002667c-12.117333-12.074667-18.773333-28.16-18.773333-45.226666s6.656-33.194667 18.773333-45.269334l33.834667-33.834666a21.333333 21.333333 0 0 1 30.165333 0l85.333333 85.333333a21.333333 21.333333 0 0 1 0 30.165333l-33.834666 33.834667a63.744 63.744 0 0 1-45.269334 18.730667z m-21.333333-122.794667l-18.730667 18.730667a21.333333 21.333333 0 0 0-0.042666 30.208l25.002666 25.002666a21.845333 21.845333 0 0 0 30.165334 0l18.773333-18.773333L352 392.832z" fill="" p-id="12904"></path><path d="M480 476.629333c-28.501333 0-55.253333-11.093333-75.434667-31.232L354.602667 395.392a106.752 106.752 0 0 1 0-150.826667l153.002666-153.002666a21.333333 21.333333 0 0 1 30.165334 0l170.666666 170.666666a21.333333 21.333333 0 0 1 0 30.165334l-153.002666 153.002666c-20.181333 20.181333-46.933333 31.232-75.434667 31.232z m42.666667-339.797333L384.768 274.730667a64.042667 64.042667 0 0 0 0 90.496l50.005333 50.005333c24.149333 24.149333 66.346667 24.149333 90.496 0L663.168 277.333333 522.666667 136.832z" fill="" p-id="12905"></path><path d="M672 277.333333a21.333333 21.333333 0 0 1-15.104-36.394666L705.834667 192 608 94.165333l-48.896 48.896a21.333333 21.333333 0 0 1-30.165333-30.165333l64-64a21.333333 21.333333 0 0 1 30.165333 0l128 128a21.333333 21.333333 0 0 1 0 30.165333l-64 64a21.333333 21.333333 0 0 1-15.104 6.272z" fill="" p-id="12906"></path><path d="M672 149.333333a21.333333 21.333333 0 0 1-15.104-36.394666l64-64a21.333333 21.333333 0 0 1 30.165333 30.165333l-64 64a21.248 21.248 0 0 1-15.061333 6.229333z" fill="" p-id="12907"></path></svg>