<?xml version="1.0" standalone="no"?><!DOCTYPE svg PUBLIC "-//W3C//DTD SVG 1.1//EN" "http://www.w3.org/Graphics/SVG/1.1/DTD/svg11.dtd"><svg t="1738416138230" class="icon" viewBox="0 0 1024 1024" version="1.1" xmlns="http://www.w3.org/2000/svg" p-id="13894" xmlns:xlink="http://www.w3.org/1999/xlink" width="48" height="48"><path d="M560.574482 601.709197l84.573357 84.573357-85.149339 85.149339zM559.9985 252.568107l85.149339 85.149339-84.573357 84.573357zM485.728821 951.970251l265.143714-265.143714-174.842536-174.842536 174.842536-174.842536-265.143714-265.143714 0 349.141089-145.723446-145.723446-53.150339 53.150339 182.842286 183.418268-182.842286 183.418268 53.150339 53.150339 145.723446-145.723446 0 349.141089zM896.563982 511.984q0 119.420268-18.271429 208.857473t-50.014437 146.843411-80.285491 92.861098-103.708759 49.438455-125.43608 14.015562-125.43608-14.015562-103.708759-49.438455-80.285491-92.861098-50.014437-146.843411-18.271429-208.857473 18.271429-208.857473 50.014437-146.843411 80.285491-92.861098 103.708759-49.438455 125.43608-14.015562 125.43608 14.015562 103.708759 49.438455 80.285491 92.861098 50.014437 146.843411 18.271429 208.857473z" p-id="13895" fill="#1296db"></path></svg>