<?xml version="1.0" standalone="no"?><!DOCTYPE svg PUBLIC "-//W3C//DTD SVG 1.1//EN" "http://www.w3.org/Graphics/SVG/1.1/DTD/svg11.dtd"><svg t="1738416339872" class="icon" viewBox="0 0 1024 1024" version="1.1" xmlns="http://www.w3.org/2000/svg" p-id="27164" xmlns:xlink="http://www.w3.org/1999/xlink" width="48" height="48"><path d="M768 1024H341.333333a42.666667 42.666667 0 0 1 0-85.333333h426.666667a42.666667 42.666667 0 0 0 42.666667-42.666667V128a42.666667 42.666667 0 0 0-42.666667-42.666667H256a42.666667 42.666667 0 0 0-42.666667 42.666667v853.333333a42.666667 42.666667 0 0 1-85.333333 0V128a128 128 0 0 1 128-128h512a128 128 0 0 1 128 128v768a128 128 0 0 1-128 128z m-42.666667-384a213.333333 213.333333 0 0 0-106.666666-184.746667 42.666667 42.666667 0 1 0-42.666667 73.813334 128 128 0 1 1-128 0 42.666667 42.666667 0 1 0-42.666667-73.813334A213.333333 213.333333 0 1 0 725.333333 640zM512 170.666667a85.333333 85.333333 0 1 0 85.333333 85.333333 85.333333 85.333333 0 0 0-85.333333-85.333333z" fill="#1296db" p-id="27165"></path></svg>