<?xml version="1.0" standalone="no"?><!DOCTYPE svg PUBLIC "-//W3C//DTD SVG 1.1//EN" "http://www.w3.org/Graphics/SVG/1.1/DTD/svg11.dtd"><svg t="1738416458785" class="icon" viewBox="0 0 1024 1024" version="1.1" xmlns="http://www.w3.org/2000/svg" p-id="28944" xmlns:xlink="http://www.w3.org/1999/xlink" width="48" height="48"><path d="M576 161.44c0-53.28-61.248-83.2-103.296-50.528L245.024 288H160a96 96 0 0 0-96 96v256a96 96 0 0 0 96 96h85.024l227.68 177.088C514.752 945.792 576 915.84 576 862.56V161.44zM266.976 352L512 161.44v701.12L266.976 672H160a32 32 0 0 1-32-32v-256a32 32 0 0 1 32-32h106.976z m550.496-145.472a15.552 15.552 0 0 1 22.4 0.224 448 448 0 0 1 0 610.528 15.552 15.552 0 0 1-22.4 0.192l-22.624-22.624a16.544 16.544 0 0 1-0.256-22.848 384 384 0 0 0 0-519.968 16.544 16.544 0 0 1 0.256-22.848l22.624-22.656zM704.32 319.68a15.328 15.328 0 0 1 22.304 0.32 287.936 287.936 0 0 1 0 384.032 15.36 15.36 0 0 1-22.304 0.32l-22.624-22.624a16.96 16.96 0 0 1-0.416-23.04 224 224 0 0 0 0-293.344 16.928 16.928 0 0 1 0.416-23.04l22.624-22.624z" fill="#000000" p-id="28945"></path></svg>