<?xml version="1.0" standalone="no"?><!DOCTYPE svg PUBLIC "-//W3C//DTD SVG 1.1//EN" "http://www.w3.org/Graphics/SVG/1.1/DTD/svg11.dtd"><svg t="1738416086870" class="icon" viewBox="0 0 1024 1024" version="1.1" xmlns="http://www.w3.org/2000/svg" p-id="11702" xmlns:xlink="http://www.w3.org/1999/xlink" width="48" height="48"><path d="M648 587.2A41.28 41.28 0 0 1 608 628.48h-283.52a41.28 41.28 0 0 1-41.28-41.28V428.8a41.28 41.28 0 0 1 41.28-41.28H608a41.28 41.28 0 0 1 41.28 41.28v158.4z m0 0" fill="#f0280e" p-id="11703"></path><path d="M789.12 96h-293.44S228.8 91.52 160 209.92c0 0-118.4 200.96 177.6 260.16 0 0 290.56 60.48 349.76 81.28 0 0 199.68 37.12 122.56 192 0 0-17.92 68.8-192 83.84 0 0-218.88 8.64-504.64 1.92v88.96L576 914.24s344.96 10.24 335.36-234.88a203.84 203.84 0 0 0-146.56-194.24C609.92 430.4 183.04 397.44 230.08 272c0 0 13.76-90.88 272.64-92.16l280.96 4.16z m0 0" fill="#f0280e" p-id="11704"></path></svg>